<svg xmlns="http://www.w3.org/2000/svg"
viewBox="0 0 24 24"
width="60"
height="60"
fill="none"
stroke="#2563EB"
stroke-width="1.8"
stroke-linecap="round"
stroke-linejoin="round">

<path d="M19 12V8C19 5.17 19 3.76 18.12 2.88C17.24 2 15.83 2 13 2H9C6.17 2 4.76 2 3.88 2.88C3 3.76 3 5.17 3 8V16C3 18.83 3 20.24 3.88 21.12C4.76 22 6.17 22 9 22H11" />

<path d="M14.5 2H7.5C7.5 3.41 7.5 4.12 7.94 4.56C8.38 5 9.09 5 10.5 5H11.5C12.91 5 13.62 5 14.06 4.56C14.5 4.12 14.5 3.41 14.5 2Z" />

<path d="M7 15H11M7 11H15" />

<path d="M15.74 21.65L14 22L14.35 20.26C14.42 19.91 14.59 19.59 14.85 19.33L18.91 15.27C19.27 14.91 19.84 14.91 20.2 15.27L20.73 15.8C21.09 16.16 21.09 16.73 20.73 17.09L16.67 21.15C16.41 21.41 16.09 21.58 15.74 21.65Z" />

</svg>